<svg width="576" height="220" viewBox="0 0 576 220" version="1.1" xmlns="http://www.w3.org/2000/svg" xmlns:xlink="http://www.w3.org/1999/xlink">
<title>graf-vector</title>
<desc>Created using Figma</desc>
<g id="Canvas" transform="translate(-318 -3624)">
<g id="graf-vector">
<use xlink:href="#path0_stroke" transform="translate(319 3625)" fill="#FFFFFF"/>
</g>
</g>
<defs>
<path id="path0_stroke" d="M 45.5 194.5L 45.4002 194.99L 45.5 194.5ZM 159 191L 158.726 190.582L 159 191ZM 377 148L 377.367 148.339L 377.367 148.339L 377 148ZM 457 117L 457.412 117.284L 457.416 117.277L 457.421 117.27L 457 117ZM 556 8L 555.797 7.54309L 555.75 7.56406L 555.708 7.59423L 556 8ZM 0.411096 218.285C 5.64593 210.722 11.5498 203.822 18.8495 199.338C 26.1069 194.874 34.728 192.816 45.4002 194.99L 45.5998 194.01C 34.672 191.784 25.7931 193.893 18.3255 198.487C 10.9002 203.061 4.85407 210.111 -0.411096 217.715L 0.411096 218.285ZM 45.4002 194.99C 58.8262 197.719 70.6367 204.315 81.2045 209.88C 86.489 212.663 91.4756 215.194 96.1707 216.839C 100.875 218.484 105.378 219.25 109.589 218.492L 109.411 217.508C 105.372 218.25 101.125 217.516 96.5011 215.895C 91.8681 214.274 86.9485 211.775 81.6705 208.995C 71.1133 203.435 59.1738 196.781 45.5998 194.01L 45.4002 194.99ZM 109.589 218.492C 126.22 215.468 128.842 211.374 159.274 191.418L 158.726 190.582C 128.158 210.626 125.78 214.532 109.411 217.508L 109.589 218.492ZM 159.274 191.418C 193.052 169.269 230.662 148.002 270.494 148.5L 270.506 147.5C 230.338 146.998 192.498 168.436 158.726 190.582L 159.274 191.418ZM 270.494 148.5C 280.403 148.615 288.853 151.985 296.822 156.177C 304.79 160.367 312.229 165.376 319.99 168.709C 327.757 172.04 335.94 173.687 345.235 171.122C 354.54 168.541 364.96 161.749 377.367 148.339L 376.633 147.66C 364.29 161.001 354.022 167.647 344.968 170.159C 335.904 172.688 328.055 171.085 320.385 167.79C 312.708 164.498 305.303 159.508 297.287 155.292C 289.272 151.077 280.597 147.634 270.506 147.5L 270.494 148.5ZM 377.367 148.339C 387.223 137.682 396.11 131.863 404.207 128.73C 412.278 125.598 419.488 125.181 426.022 125.387C 432.55 125.592 438.391 126.434 443.589 125.814C 448.851 125.181 453.448 123.038 457.412 117.284L 456.588 116.716C 452.802 122.212 448.474 124.219 443.47 124.821C 438.403 125.434 432.638 124.596 426.053 124.388C 419.474 124.181 412.066 124.621 403.846 127.798C 395.653 130.974 386.577 136.918 376.633 147.66L 377.367 148.339ZM 457.421 117.27C 461.941 110.235 466.094 100.609 470.206 90.1486C 474.318 79.6889 478.403 68.3694 482.811 57.8939C 487.218 47.4197 491.925 37.8254 497.307 30.7623C 502.681 23.7065 508.64 19.2903 515.521 18.9996L 515.479 18.0004C 508.16 18.3097 501.957 23.006 496.512 30.1564C 491.075 37.2996 486.307 47.0053 481.889 57.5061C 477.472 68.0056 473.382 79.3361 469.275 89.7827C 465.169 100.228 461.059 109.765 456.579 116.73L 457.421 117.27ZM 515.521 18.9996C 529.761 18.3962 538.916 16.5071 545.001 14.3974C 551.129 12.2651 554.215 9.90115 556.292 8.40577L 555.708 7.59423C 553.618 9.09885 550.654 11.3849 544.674 13.4526C 538.651 15.5429 529.639 17.4038 515.479 18.0004L 515.521 18.9996ZM 556.203 8.45691L 574.203 0.456906L 573.797 -0.456906L 555.797 7.54309L 556.203 8.45691Z"/>
</defs>
</svg>
