<svg width="389" height="104" viewBox="0 0 389 104" version="1.1" xmlns="http://www.w3.org/2000/svg" xmlns:xlink="http://www.w3.org/1999/xlink">
<title>graf2</title>
<desc>Created using Figma</desc>
<g id="Canvas" transform="translate(133 -3508)">
<g id="graf2">
<use xlink:href="#path0_stroke" transform="translate(-132.5 3508.85)"/>
</g>
</g>
<defs>
<path id="path0_stroke" d="M 110.5 91.1506L 110.748 90.7164L 110.748 90.7164L 110.5 91.1506ZM 335 45.1505L 334.745 45.5807L 334.745 45.5807L 335 45.1505ZM 377.627 57.1506L 377.569 57.6473L 377.927 57.689L 378.08 57.3629L 377.627 57.1506ZM 0.482074 91.2833C 2.93171 82.383 11.3058 71.6244 28.5646 68.48C 45.8486 65.3311 72.0989 69.8116 110.252 91.5849L 110.748 90.7164C 72.5011 68.8897 46.0014 64.2868 28.3854 67.4962C 10.7442 70.7102 2.06829 81.7516 -0.482074 91.0179L 0.482074 91.2833ZM 110.252 91.5849C 134.253 105.282 152.275 104.432 167.812 96.5733C 183.271 88.7532 196.239 73.9937 210.166 60.0666C 224.131 46.1018 239.094 32.9273 258.63 28.0026C 278.142 23.0839 302.318 26.3738 334.745 45.5807L 335.255 44.7203C 302.682 25.4272 278.233 22.0297 258.386 27.0329C 238.562 32.0301 223.432 45.3868 209.459 59.3595C 195.449 73.37 182.635 87.9543 167.36 95.681C 152.162 103.369 134.497 104.27 110.748 90.7164L 110.252 91.5849ZM 334.745 45.5807C 336.512 46.627 337.65 47.5041 338.298 48.2262C 338.957 48.9601 339.014 49.4198 338.919 49.6966C 338.812 50.0125 338.426 50.3678 337.589 50.691C 336.763 51.012 335.668 51.2396 334.343 51.4032C 329.009 52.0662 320.649 51.5402 315.637 50.986C 314.387 50.8478 313.357 50.7092 312.635 50.5865C 312.277 50.5258 312.011 50.4724 311.828 50.4243C 311.742 50.402 311.703 50.3899 311.674 50.377C 311.664 50.3725 311.686 50.3805 311.719 50.4055C 311.729 50.4133 311.878 50.5203 311.894 50.738C 311.914 51.0042 311.727 51.1418 311.684 51.1699C 311.653 51.1895 311.628 51.1998 311.617 51.2041C 311.623 51.2023 311.599 51.2106 311.597 51.2107C 311.574 51.2178 311.656 51.1994 311.749 51.1924C 311.95 51.1766 312.259 51.1713 312.712 51.1787C 313.625 51.1933 315.047 51.2605 317.091 51.3991C 325.282 51.9544 343.293 53.6479 377.569 57.6473L 377.685 56.654C 343.398 52.6534 325.362 50.9577 317.159 50.4014C 315.105 50.2621 313.657 50.1938 312.728 50.1788C 312.258 50.1713 311.903 50.1777 311.671 50.1954C 311.548 50.2053 311.424 50.2232 311.344 50.2434C 311.3 50.2548 311.222 50.2782 311.143 50.3286C 311.074 50.3727 310.876 50.5274 310.897 50.8118C 310.915 51.0478 311.078 51.174 311.115 51.2022C 311.159 51.2341 311.231 51.2742 311.277 51.2946C 311.352 51.3262 311.463 51.3624 311.574 51.3917C 311.785 51.4466 312.094 51.509 312.467 51.5724C 313.207 51.6978 314.265 51.8404 315.527 51.9799C 320.563 52.5364 329.039 53.0658 334.466 52.3956C 335.831 52.226 337.046 51.971 337.95 51.6238C 338.843 51.2787 339.606 50.78 339.866 50.0196C 340.139 49.2203 339.781 48.3815 339.043 47.5584C 338.293 46.7234 337.052 45.7848 335.255 44.7203L 334.745 45.5807ZM 378.08 57.3629C 379.092 55.2034 379.093 52.2606 378.511 48.9254C 377.927 45.5849 376.737 41.7384 375.275 37.7322C 372.351 29.7242 368.313 20.9732 365.724 13.9134C 364.432 10.3882 363.51 7.32607 363.261 4.97282C 363.007 2.58978 363.471 1.25446 364.567 0.754837C 365.151 0.488603 365.999 0.407634 367.202 0.624493C 368.42 0.842827 369.905 1.34446 371.757 2.18801C 375.481 3.88268 380.514 6.89769 387.214 11.561L 387.786 10.7402C 381.057 6.05786 375.946 2.99727 372.171 1.27787C 370.273 0.414394 368.669 -0.125629 367.379 -0.359631C 366.073 -0.595107 364.994 -0.539093 364.152 -0.155086C 362.395 0.645768 362.009 2.66396 362.267 5.07896C 362.53 7.52377 363.483 10.7042 364.786 14.2576C 367.388 21.3551 371.426 30.1055 374.335 38.0752C 375.789 42.0579 376.955 45.8192 377.526 49.0972C 378.098 52.3805 378.052 55.0668 377.174 56.9384L 378.08 57.3629Z"/>
</defs>
</svg>
