<svg width="165" height="46" viewBox="0 0 165 46" version="1.1" xmlns="http://www.w3.org/2000/svg" xmlns:xlink="http://www.w3.org/1999/xlink">
<title>line-blue-1-1280</title>
<desc>Created using Figma</desc>
<g id="Canvas" transform="translate(-2831 -2605)">
<g id="line-blue-1-1280">
<g id="Vector 3" filter="url(#filter0_d)">
<use xlink:href="#path0_stroke" transform="translate(2836 2608.5)" fill="#2F80ED"/>
</g>
<g id="Ellipse 6" filter="url(#filter1_d)">
<use xlink:href="#path1_fill" transform="translate(2987 2641)" fill="#FFFFFF"/>
</g>
</g>
</g>
<defs>
<filter id="filter0_d" filterUnits="userSpaceOnUse" x="2831" y="2605" width="164" height="46" color-interpolation-filters="sRGB">
<feFlood flood-opacity="0" result="BackgroundImageFix"/>
<feColorMatrix in="SourceAlpha" type="matrix" values="0 0 0 0 0 0 0 0 0 0 0 0 0 0 0 0 0 0 255 0"/>
<feOffset dx="0" dy="2"/>
<feGaussianBlur stdDeviation="2"/>
<feColorMatrix type="matrix" values="0 0 0 0 0 0 0 0 0 0 0 0 0 0 0 0 0 0 0.25 0"/>
<feBlend mode="normal" in2="BackgroundImageFix" result="effect1_dropShadow"/>
<feBlend mode="normal" in="SourceGraphic" in2="effect1_dropShadow" result="shape"/>
</filter>
<filter id="filter1_d" filterUnits="userSpaceOnUse" x="2983" y="2637" width="13" height="13" color-interpolation-filters="sRGB">
<feFlood flood-opacity="0" result="BackgroundImageFix"/>
<feColorMatrix in="SourceAlpha" type="matrix" values="0 0 0 0 0 0 0 0 0 0 0 0 0 0 0 0 0 0 255 0"/>
<feOffset dx="0" dy="0"/>
<feGaussianBlur stdDeviation="2"/>
<feColorMatrix type="matrix" values="0 0 0 0 0.184314 0 0 0 0 0.501961 0 0 0 0 0.929412 0 0 0 1 0"/>
<feBlend mode="normal" in2="BackgroundImageFix" result="effect1_dropShadow"/>
<feBlend mode="normal" in="SourceGraphic" in2="effect1_dropShadow" result="shape"/>
</filter>
<path id="path0_stroke" d="M 0 -1C -0.552285 -1 -1 -0.552285 -1 0C -1 0.552285 -0.552285 1 0 1L 0 -1ZM 110.5 0L 111.131 -0.775562L 110.856 -1L 110.5 -1L 110.5 0ZM 152.869 35.7756C 153.297 36.1242 153.927 36.0596 154.276 35.6313C 154.624 35.2029 154.56 34.5731 154.131 34.2244L 152.869 35.7756ZM 0 1L 110.5 1L 110.5 -1L 0 -1L 0 1ZM 109.869 0.775562L 152.869 35.7756L 154.131 34.2244L 111.131 -0.775562L 109.869 0.775562Z"/>
<path id="path1_fill" d="M 5 2.5C 5 3.88071 3.88071 5 2.5 5C 1.11929 5 0 3.88071 0 2.5C 0 1.11929 1.11929 0 2.5 0C 3.88071 0 5 1.11929 5 2.5Z"/>
</defs>
</svg>
