<svg width="444" height="178" viewBox="0 0 444 178" version="1.1" xmlns="http://www.w3.org/2000/svg" xmlns:xlink="http://www.w3.org/1999/xlink">
<title>Vector 8</title>
<desc>Created using Figma</desc>
<g id="Canvas" transform="translate(-354 -3592)">
<g id="Vector 8">
<use xlink:href="#path0_stroke" transform="translate(355 3592.5)"/>
</g>
</g>
<defs>
<path id="path0_stroke" d="M 0.438641 177.24C 12.7392 154.757 45.0324 123.106 84.4399 102.746C 123.844 82.3876 170.221 73.386 210.757 95.9585L 211.243 95.0849C 170.288 72.2787 123.525 81.4268 83.9808 101.858C 44.4404 122.286 11.9789 154.064 -0.438641 176.76L 0.438641 177.24ZM 210.757 95.9585C 251.721 118.77 301.593 108.54 345.175 85.8259C 388.765 63.1077 426.221 27.8234 442.431 0.253423L 441.569 -0.253423C 425.473 27.1224 388.174 62.2883 344.713 84.9391C 301.244 107.594 251.769 117.652 211.243 95.0849L 210.757 95.9585Z"/>
</defs>
</svg>
