<svg width="1483" height="649" viewBox="0 0 1483 649" version="1.1" xmlns="http://www.w3.org/2000/svg" xmlns:xlink="http://www.w3.org/1999/xlink">
<title>bg-lines</title>
<desc>Created using Figma</desc>
<g id="Canvas" transform="translate(-260 -1)">
<g id="bg-lines">
<use xlink:href="#bglines" transform="translate(260.5 2)" fill="#000000" fill-opacity="0.05"/>
</g>
</g>
<defs>
<path id="bglines" d="M 916 123.5L 916.039 123.001L 916.029 123.001L 916 123.5ZM 2.77271 511.945L 268.273 647.445L 268.727 646.555L 3.22729 511.055L 2.77271 511.945ZM 805.122 515.985L 1372.62 373.485L 1372.38 372.515L 804.878 515.015L 805.122 515.985ZM 1478.21 155.048L 1155.21 2.54786L 1154.79 3.45214L 1477.79 155.952L 1478.21 155.048ZM 916.029 123.001L 571.529 103.001L 571.471 103.999L 915.971 123.999L 916.029 123.001ZM 46.2523 89.9343L 793.252 515.934L 793.748 515.066L 46.7477 89.0657L 46.2523 89.9343ZM 272.941 645.236L 563.441 103.736L 562.559 103.264L 272.059 644.764L 272.941 645.236ZM 43.0028 97.4474L -0.497223 508.447L 0.497223 508.553L 43.9972 97.5526L 43.0028 97.4474ZM 801.912 508.783L 1146.41 6.78292L 1145.59 6.21708L 801.088 508.217L 801.912 508.783ZM 1481.56 175.771L 1378.56 375.271L 1379.44 375.729L 1482.44 176.229L 1481.56 175.771ZM 915.961 123.998L 1475.46 167.998L 1475.54 167.002L 916.039 123.002L 915.961 123.998ZM 1138.92 -0.494198L 894.924 37.0058L 895.076 37.9942L 1139.08 0.494198L 1138.92 -0.494198Z"/>
</defs>
</svg>
